<svg width="1063" height="250" viewBox="0 0 1063 250" fill="none" xmlns="http://www.w3.org/2000/svg">
<g clip-path="url(#clip0_17_3)">
<mask id="mask0_17_3" style="mask-type:luminance" maskUnits="userSpaceOnUse" x="0" y="11" width="228" height="228">
<path d="M227.149 11.554H0.25V238.453H227.149V11.554Z" fill="white"/>
</mask>
<g mask="url(#mask0_17_3)">
<path d="M91.0032 11.554H45.6235V56.9336H91.0032V11.554Z" fill="white"/>
<path d="M91.0032 193.073H45.6235V238.453H91.0032V193.073Z" fill="white"/>
<path d="M181.763 11.554H136.383V56.9336H181.763V11.554Z" fill="white"/>
<path d="M181.763 193.073H136.383V238.453H181.763V193.073Z" fill="white"/>
<path d="M45.6296 56.9397H0.25V102.319H45.6296V56.9397Z" fill="white"/>
<path d="M91.0032 102.313H45.6235V147.692H91.0032V102.313Z" fill="white"/>
<path d="M91.0032 102.313H45.6235V147.692H91.0032V102.313Z" fill="white"/>
<path d="M136.376 56.9397H90.9971V102.319H136.376V56.9397Z" fill="white"/>
<path d="M181.763 102.313H136.383V147.692H181.763V102.313Z" fill="white"/>
<path d="M45.6296 147.699H0.25V193.079H45.6296V147.699Z" fill="white"/>
<path d="M136.376 147.699H90.9971V193.079H136.376V147.699Z" fill="white"/>
<path d="M227.149 147.699H181.769V193.079H227.149V147.699Z" fill="white"/>
<path d="M227.149 56.9397H181.769V102.319H227.149V56.9397Z" fill="white"/>
</g>
<path d="M318.028 222.272L335.497 209.171V44.0463L318.028 30.9455V28.2162H455.314L460.772 67.7915H458.043L437.846 43.7734L363.882 40.4982V212.718L440.848 209.443L461.046 185.426H464.048L458.316 225.001H318.028V222.272ZM357.331 114.736L416.831 113.098L430.477 91.8095H433.207V150.49H430.477L416.831 128.928L357.331 127.018V114.736ZM474.936 222.272L488.582 211.081V103.546L474.936 93.4472V90.7178L515.057 81.4382V113.371C518.877 103.182 524.699 95.1758 532.524 89.3532C540.531 83.5307 549.628 80.6193 559.817 80.6193C568.733 80.6193 576.648 82.5298 583.562 86.3509C590.477 90.1719 595.844 95.7217 599.666 103C603.668 110.096 605.669 118.648 605.669 128.656V211.081L619.317 222.272V225.001H565.549V222.272L579.196 211.081V130.293C579.196 123.379 578.013 117.647 575.647 113.098C573.464 108.368 570.279 104.91 566.094 102.727C561.909 100.361 557.088 99.1788 551.629 99.1788C545.988 99.1788 540.621 100.634 535.526 103.546C530.432 106.457 526.064 110.642 522.426 116.101C518.968 121.559 516.512 128.018 515.057 135.478V211.081L528.976 222.272V225.001H474.936V222.272ZM692.497 227.73C680.306 227.73 669.479 224.637 660.018 218.451C650.738 212.265 643.459 203.621 638.183 192.522C632.907 181.241 630.268 168.413 630.268 154.038C630.268 140.028 633.271 127.473 639.274 116.374C645.279 105.092 653.558 96.3584 664.112 90.1719C674.666 83.8035 686.583 80.6193 699.866 80.6193C707.326 80.6193 714.241 81.984 720.609 84.7133C727.159 87.4427 732.891 91.6277 737.803 97.2682V45.6839L724.157 35.5854V32.856L764.278 23.5764V211.081L777.924 222.272V225.001H737.803V196.07C733.983 205.896 727.978 213.628 719.791 219.27C711.602 224.91 702.504 227.73 692.497 227.73ZM699.321 210.808C705.507 210.808 711.329 209.352 716.788 206.441C722.247 203.348 726.796 199.072 730.434 193.613C734.256 187.973 736.712 181.422 737.803 173.962V123.197C735.802 116.465 733.073 110.733 729.616 106.002C726.158 101.271 722.064 97.7232 717.333 95.3577C712.603 92.9923 707.326 91.8095 701.503 91.8095C693.133 91.8095 685.582 94.5389 678.851 99.9975C672.299 105.456 667.204 112.916 663.566 122.378C660.108 131.84 658.381 142.393 658.381 154.038C658.381 164.956 660.018 174.691 663.293 183.242C666.568 191.795 671.299 198.526 677.486 203.44C683.672 208.352 690.951 210.808 699.321 210.808ZM816.626 149.671C816.626 161.498 818.718 171.87 822.903 180.786C827.271 189.702 833.093 196.525 840.371 201.256C847.649 205.805 855.746 208.08 864.662 208.08C875.033 208.08 883.949 205.077 891.409 199.072C899.052 193.067 904.874 184.607 908.877 173.69L918.703 176.418C915.427 191.885 908.422 204.348 897.687 213.811C886.952 223.091 873.668 227.73 857.838 227.73C844.009 227.73 831.819 224.455 821.266 217.905C810.894 211.172 802.888 202.256 797.247 191.157C791.789 179.876 789.059 167.503 789.059 154.038C789.059 140.573 791.607 128.292 796.702 117.192C801.978 106.093 809.621 97.2682 819.628 90.7178C829.636 83.9855 841.463 80.6193 855.109 80.6193C869.119 80.6193 880.856 83.6215 890.318 89.6262C899.779 95.6307 906.693 103.819 911.061 114.19C915.609 124.38 917.611 135.843 917.066 148.58H804.889V137.936H889.499C888.953 129.383 887.316 121.65 884.586 114.736C881.857 107.64 877.944 101.999 872.849 97.814C867.937 93.6292 862.023 91.5367 855.109 91.5367C847.103 91.5367 840.189 94.175 834.367 99.4517C828.544 104.728 824.086 111.825 820.993 120.74C818.082 129.656 816.626 139.3 816.626 149.671ZM997.548 222.272L1007.92 211.627L934.501 98.087L917.306 86.078V83.3487H974.622V86.078L964.251 97.5412L1038.22 211.081L1055.14 222.272V225.001H997.548V222.272ZM914.031 222.272L932.591 211.081L981.172 146.396L1015.29 97.5412L1004.64 86.078L1004.92 83.3487H1051.86V86.078L1033.03 98.087L987.449 156.767L950.331 211.627L960.976 222.272L960.702 225.001H914.031V222.272Z" fill="white"/>
</g>
<defs>
<clipPath id="clip0_17_3">
<rect width="1062.5" height="250" fill="white" transform="translate(0.25)"/>
</clipPath>
</defs>
</svg>
